<?xml version="1.0" encoding="UTF-8"?>
<svg width="19px" height="19px" viewBox="0 0 19 19" version="1.1" xmlns="http://www.w3.org/2000/svg" xmlns:xlink="http://www.w3.org/1999/xlink">
    <title>breakLink</title>
    <defs>
        <polygon id="path-1" points="0 0 10 0 10 3 5.5 3 5.5 6 10 6 10 9 0 9"></polygon>
        <polygon id="path-3" points="0 0 10 0 10 3 5.5 3 5.5 6 10 6 10 9 0 9"></polygon>
    </defs>
    <g id="breakLink" stroke="none" stroke-width="1" fill="none" fill-rule="evenodd">
        <g id="Rectangle" transform="translate(4.903806, 14.096194) rotate(-45.000000) translate(-4.903806, -14.096194) translate(-0.096194, 9.596194)">
            <mask id="mask-2" fill="white">
                <use xlink:href="#path-1"></use>
            </mask>
            <g id="Mask"></g>
            <path d="M6.5,2 C7.88071187,2 9,3.11928813 9,4.5 C9,5.88071187 7.88071187,7 6.5,7 L3.5,7 C2.11928813,7 1,5.88071187 1,4.5 C1,3.11928813 2.11928813,2 3.5,2 L6.5,2 Z M6.5,3 L3.5,3 C2.67157288,3 2,3.67157288 2,4.5 C2,5.27969612 2.59488808,5.92044868 3.35553999,5.99313342 L3.5,6 L6.5,6 C7.32842712,6 8,5.32842712 8,4.5 C8,3.72030388 7.40511192,3.07955132 6.64446001,3.00686658 L6.5,3 Z" fill-opacity="0.4" fill="#000000" fill-rule="nonzero" mask="url(#mask-2)"></path>
        </g>
        <g id="Rectangle-Copy" transform="translate(14.096194, 4.903806) rotate(-225.000000) translate(-14.096194, -4.903806) translate(9.096194, 0.403806)">
            <mask id="mask-4" fill="white">
                <use xlink:href="#path-3"></use>
            </mask>
            <g id="Mask"></g>
            <path d="M6.5,2 C7.88071187,2 9,3.11928813 9,4.5 C9,5.88071187 7.88071187,7 6.5,7 L3.5,7 C2.11928813,7 1,5.88071187 1,4.5 C1,3.11928813 2.11928813,2 3.5,2 L6.5,2 Z M6.5,3 L3.5,3 C2.67157288,3 2,3.67157288 2,4.5 C2,5.27969612 2.59488808,5.92044868 3.35553999,5.99313342 L3.5,6 L6.5,6 C7.32842712,6 8,5.32842712 8,4.5 C8,3.72030388 7.40511192,3.07955132 6.64446001,3.00686658 L6.5,3 Z" id="Rectangle" fill-opacity="0.4" fill="#000000" fill-rule="nonzero" mask="url(#mask-4)"></path>
        </g>
        <path d="M8.67157288,11.8284271 C8.94771525,11.8284271 9.17157288,12.0522847 9.17157288,12.3284271 C9.17157288,12.573887 8.99469771,12.7780355 8.76144851,12.8203715 L8.67157288,12.8284271 L4.67157288,12.8284271 C4.3954305,12.8284271 4.17157288,12.6045695 4.17157288,12.3284271 C4.17157288,12.0829672 4.34844804,11.8788188 4.58169724,11.8364828 L4.67157288,11.8284271 L8.67157288,11.8284271 Z" id="Line-5" fill-opacity="0.4" fill="#000000" fill-rule="nonzero" transform="translate(6.671573, 12.328427) rotate(-45.000000) translate(-6.671573, -12.328427) "></path>
        <path d="M14.3284271,6.17157288 C14.6045695,6.17157288 14.8284271,6.3954305 14.8284271,6.67157288 C14.8284271,6.91703276 14.651552,7.12118125 14.4183028,7.16351721 L14.3284271,7.17157288 L10.3284271,7.17157288 C10.0522847,7.17157288 9.82842712,6.94771525 9.82842712,6.67157288 C9.82842712,6.42611299 10.0053023,6.2219645 10.2385515,6.17962854 L10.3284271,6.17157288 L14.3284271,6.17157288 Z" id="Line-5-Copy" fill-opacity="0.4" fill="#000000" fill-rule="nonzero" transform="translate(12.328427, 6.671573) rotate(-45.000000) translate(-12.328427, -6.671573) "></path>
        <path d="M4.88730591,6.28501945 C5.1068519,6.17524645 5.36854883,6.24215043 5.51072748,6.43184164 L5.5581263,6.50862625 L6.5581263,8.50862625 C6.68162092,8.7556155 6.58150875,9.05595202 6.3345195,9.17944664 C6.1149735,9.28921964 5.85327657,9.22231567 5.71109792,9.03262445 L5.66369911,8.95583984 L4.66369911,6.95583984 C4.54020448,6.7088506 4.64031666,6.40851408 4.88730591,6.28501945 Z" id="Line-6" fill-opacity="0.4" fill="#000000" fill-rule="nonzero" transform="translate(5.610913, 7.732233) rotate(-45.000000) translate(-5.610913, -7.732233) "></path>
        <path d="M10.5441602,11.9418737 C10.7637062,11.8321007 11.0254031,11.8990047 11.1675817,12.0886959 L11.2149805,12.1654805 L12.2149805,14.1654805 C12.3384752,14.4124697 12.238363,14.7128063 11.9913738,14.8363009 C11.7718278,14.9460739 11.5101308,14.8791699 11.3679522,14.6894787 L11.3205534,14.6126941 L10.3205534,12.6126941 C10.1970587,12.3657048 10.2971709,12.0653683 10.5441602,11.9418737 Z" id="Line-6-Copy-2" fill-opacity="0.4" fill="#000000" fill-rule="nonzero" transform="translate(11.267767, 13.389087) scale(1, -1) rotate(45.000000) translate(-11.267767, -13.389087) "></path>
        <path d="M7.19385423,4.0850745 C7.42532778,4.00340105 7.67669666,4.10227021 7.79423082,4.30814214 L7.83173237,4.39021623 L8.5757536,6.49887277 C8.66763622,6.75928052 8.53101961,7.04486829 8.27061187,7.13675091 C8.03913831,7.21842435 7.78776943,7.11955519 7.67023528,6.91368327 L7.63273373,6.83160918 L6.8887125,4.72295264 C6.79682987,4.46254489 6.93344648,4.17695712 7.19385423,4.0850745 Z" id="Line-6-Copy" fill-opacity="0.4" fill="#000000" fill-rule="nonzero"></path>
        <path d="M11.8632491,10.7293881 C11.9449225,10.4979146 12.179647,10.3642513 12.4136923,10.4019382 L12.5011272,10.4242464 L14.6097838,11.1682676 C14.8701915,11.2601503 15.0068081,11.545738 14.9149255,11.8061458 C14.8332521,12.0376193 14.5985276,12.1712826 14.3644823,12.1335957 L14.2770474,12.1112875 L12.1683908,11.3672663 C11.9079831,11.2753837 11.7713665,10.9897959 11.8632491,10.7293881 Z" id="Line-6-Copy-3" fill-opacity="0.4" fill="#000000" fill-rule="nonzero"></path>
    </g>
</svg>