<?xml version="1.0" encoding="UTF-8"?>
<svg width="19px" height="19px" viewBox="0 0 19 19" version="1.1" xmlns="http://www.w3.org/2000/svg" xmlns:xlink="http://www.w3.org/1999/xlink">
    <!-- Generator: Sketch 62 (91390) - https://sketch.com -->
    <title>clock</title>
    <desc>Created with Sketch.</desc>
    <g id="clock" stroke="none" stroke-width="1" fill="none" fill-rule="evenodd" fill-opacity="0.4">
        <path d="M9.54,3 C13.1298509,3 16.04,5.91014913 16.04,9.5 C16.04,13.0118106 13.2550038,15.8731506 9.77313413,15.995897 L9.54,16 L9.54,15 C12.5775661,15 15.04,12.5375661 15.04,9.5 C15.04,6.46243388 12.5775661,4 9.54,4 C6.57652085,4 4.16046086,6.34378001 4.0443672,9.27879286 L4.04,9.5 L4.039,10.54 L6.03685425,8.54289322 L6.74396103,9.25 L3.56198052,12.4319805 L0.38,9.25 L1.08710678,8.54289322 L3.039,10.496 L3.04,9.5 C3.04,5.91014913 5.95014913,3 9.54,3 Z" id="Combined-Shape" fill="#000000" fill-rule="nonzero"></path>
        <path d="M9.5,5.5 C9.74545989,5.5 9.94960837,5.67687516 9.99194433,5.91012437 L10,6 L9.999,9.74 L12.6185681,11.5916761 C12.8190224,11.7333399 12.8836588,11.9956061 12.7836158,12.2105222 L12.7383239,12.2885681 C12.5966601,12.4890224 12.3343939,12.5536588 12.1194778,12.4536158 L12.0414319,12.4083239 L9.21143186,10.4083239 C9.10535671,10.3333592 9.03368541,10.2209234 9.0092599,10.0958176 L9,10 L9,6 C9,5.72385763 9.22385763,5.5 9.5,5.5 Z" id="Path-2" fill="#000000" fill-rule="nonzero"></path>
    </g>
</svg>