<?xml version="1.0" encoding="UTF-8"?>
<svg width="19px" height="19px" viewBox="0 0 19 19" version="1.1" xmlns="http://www.w3.org/2000/svg" xmlns:xlink="http://www.w3.org/1999/xlink">
    <title>copy</title>
    <g id="copy" stroke="none" stroke-width="1" fill="none" fill-rule="evenodd" fill-opacity="0.4">
        <path d="M14,3 C14.5522847,3 15,3.44771525 15,4 L15,15 C15,15.5522847 14.5522847,16 14,16 L5,16 C4.44771525,16 4,15.5522847 4,15 L4,4 C4,3.44771525 4.44771525,3 5,3 L6,3 L6,4 L5,4 L5,15 L14,15 L14,4 L13,4 L13,3 L14,3 Z" id="Combined-Shape" fill="#000000" fill-rule="nonzero"></path>
        <path d="M10.5,2 L12,3 L12,5 L7,5 L7,3 L8.5,2 L10.5,2 Z M10.197,3 L8.802,3 L8,3.535 L8,4 L11,4 L11,3.535 L10.197,3 Z" id="Rectangle" fill="#000000" fill-rule="nonzero" opacity="0.600000024"></path>
    </g>
</svg>