<?xml version="1.0" encoding="UTF-8"?>
<svg width="19px" height="19px" viewBox="0 0 19 19" version="1.1" xmlns="http://www.w3.org/2000/svg" xmlns:xlink="http://www.w3.org/1999/xlink">
    <title>link</title>
    <defs>
        <polygon id="path-1" points="0 0 10 0 10 3 5.5 3 5.5 6 10 6 10 9 0 9"></polygon>
        <polygon id="path-3" points="0 0 10 0 10 3 5.5 3 5.5 6 10 6 10 9 0 9"></polygon>
    </defs>
    <g id="link" stroke="none" stroke-width="1" fill="none" fill-rule="evenodd">
        <g id="Group-5-Copy" transform="translate(9.000000, 9.500000) rotate(-45.000000) translate(-9.000000, -9.500000) translate(-1.000000, 5.000000)">
            <g id="Rectangle">
                <mask id="mask-2" fill="white">
                    <use xlink:href="#path-1"></use>
                </mask>
                <g id="Mask"></g>
                <path d="M6.5,2 C7.88071187,2 9,3.11928813 9,4.5 C9,5.88071187 7.88071187,7 6.5,7 L3.5,7 C2.11928813,7 1,5.88071187 1,4.5 C1,3.11928813 2.11928813,2 3.5,2 L6.5,2 Z M6.5,3 L3.5,3 C2.67157288,3 2,3.67157288 2,4.5 C2,5.27969612 2.59488808,5.92044868 3.35553999,5.99313342 L3.5,6 L6.5,6 C7.32842712,6 8,5.32842712 8,4.5 C8,3.72030388 7.40511192,3.07955132 6.64446001,3.00686658 L6.5,3 Z" fill-opacity="0.4" fill="#000000" fill-rule="nonzero" mask="url(#mask-2)"></path>
            </g>
            <g id="Rectangle-Copy" transform="translate(15.000000, 4.500000) rotate(-180.000000) translate(-15.000000, -4.500000) translate(10.000000, 0.000000)">
                <mask id="mask-4" fill="white">
                    <use xlink:href="#path-3"></use>
                </mask>
                <g id="Mask"></g>
                <path d="M6.5,2 C7.88071187,2 9,3.11928813 9,4.5 C9,5.88071187 7.88071187,7 6.5,7 L3.5,7 C2.11928813,7 1,5.88071187 1,4.5 C1,3.11928813 2.11928813,2 3.5,2 L6.5,2 Z M6.5,3 L3.5,3 C2.67157288,3 2,3.67157288 2,4.5 C2,5.27969612 2.59488808,5.92044868 3.35553999,5.99313342 L3.5,6 L6.5,6 C7.32842712,6 8,5.32842712 8,4.5 C8,3.72030388 7.40511192,3.07955132 6.64446001,3.00686658 L6.5,3 Z" id="Rectangle" fill-opacity="0.4" fill="#000000" fill-rule="nonzero" mask="url(#mask-4)"></path>
            </g>
            <path d="M14.5,4 C14.7761424,4 15,4.22385763 15,4.5 C15,4.74545989 14.8231248,4.94960837 14.5898756,4.99194433 L14.5,5 L5.5,5 C5.22385763,5 5,4.77614237 5,4.5 C5,4.25454011 5.17687516,4.05039163 5.41012437,4.00805567 L5.5,4 L14.5,4 Z" id="Line-5" fill-opacity="0.4" fill="#000000" fill-rule="nonzero"></path>
        </g>
    </g>
</svg>