<?xml version="1.0" encoding="UTF-8"?>
<svg width="19px" height="19px" viewBox="0 0 19 19" version="1.1" xmlns="http://www.w3.org/2000/svg" xmlns:xlink="http://www.w3.org/1999/xlink">
    <!-- Generator: Sketch 57.1 (83088) - https://sketch.com -->
    <title>more</title>
    <desc>Created with Sketch.</desc>
    <g id="more" stroke="none" stroke-width="1" fill="none" fill-rule="evenodd" fill-opacity="0.4">
        <path d="M5.5,8.5 C6.05228475,8.5 6.5,8.94771525 6.5,9.5 C6.5,10.0522847 6.05228475,10.5 5.5,10.5 C4.94771525,10.5 4.5,10.0522847 4.5,9.5 C4.5,8.94771525 4.94771525,8.5 5.5,8.5 Z M9.5,8.5 C10.0522847,8.5 10.5,8.94771525 10.5,9.5 C10.5,10.0522847 10.0522847,10.5 9.5,10.5 C8.94771525,10.5 8.5,10.0522847 8.5,9.5 C8.5,8.94771525 8.94771525,8.5 9.5,8.5 Z M13.5,8.5 C14.0522847,8.5 14.5,8.94771525 14.5,9.5 C14.5,10.0522847 14.0522847,10.5 13.5,10.5 C12.9477153,10.5 12.5,10.0522847 12.5,9.5 C12.5,8.94771525 12.9477153,8.5 13.5,8.5 Z" id="Combined-Shape" fill="#000000"></path>
    </g>
</svg>