<?xml version="1.0" encoding="UTF-8"?>
<svg width="19px" height="19px" viewBox="0 0 19 19" version="1.1" xmlns="http://www.w3.org/2000/svg" xmlns:xlink="http://www.w3.org/1999/xlink">
    <title>newCommand</title>
    <g id="newCommand" stroke="none" stroke-width="1" fill="none" fill-rule="evenodd" fill-opacity="0.4">
        <path d="M10,6 L10,9 L13,9 L13,10 L10,10 L10,13 L9,13 L9,10 L6,10 L6,9 L9,9 L9,6 L10,6 Z" id="Combined-Shape" fill="#000000" fill-rule="nonzero"></path>
        <path d="M10.7285156,1 C10.9424913,1 11.0753038,1.10329861 11.1269531,1.30989583 C11.1443932,1.37697285 11.1621991,1.45453828 11.1803708,1.54259211 L11.2359838,1.83821884 L11.293792,2.196776 L11.3537954,2.6182636 L11.4479167,3.36848958 C11.7080078,3.4514974 11.9618734,3.55110677 12.2095133,3.66731771 L12.4550781,3.7890625 L13.9824219,2.59375 C14.0857205,2.52734375 14.1816406,2.49414062 14.2701823,2.49414062 C14.3882378,2.49414062 14.60386,2.63268516 14.9170487,2.90977423 L15.1702339,3.14356814 L15.3105469,3.27994792 C15.4286024,3.39636381 15.5384597,3.50658543 15.6401186,3.61061278 L15.9205006,3.90411201 C15.9631318,3.94993141 16.0037133,3.99420225 16.0422454,4.03692451 L16.2488426,4.27467528 C16.2791763,4.31120328 16.3074605,4.3461827 16.333695,4.37961355 L16.40625,4.47526042 C16.4726562,4.54904514 16.5058594,4.63389757 16.5058594,4.72981771 C16.5058594,4.82573785 16.468967,4.91796875 16.3951823,5.00651042 L16.0223389,5.46720378 L15.7006836,5.87532552 L15.4302165,6.23087565 L15.2109375,6.53385417 C15.3289931,6.75225694 15.4446875,7.01079861 15.5580208,7.30947917 L15.6425781,7.54101562 L17.6901042,7.85091146 C17.7786458,7.8656684 17.8524306,7.91362847 17.9114583,7.99479167 C17.9508102,8.04890046 17.9770448,8.10464892 17.990162,8.16203704 L18,8.24934896 L18,10.7063802 C18,10.8023003 17.9704861,10.8889974 17.9114583,10.9664714 C17.8671875,11.0245768 17.8125407,11.0650431 17.7475179,11.0878703 L17.6790365,11.1048177 L15.6536458,11.4147135 C15.5429688,11.7688802 15.3917101,12.1304253 15.1998698,12.499349 L15.3548177,12.7090205 L15.6702474,13.1180646 L16.0963542,13.6614583 L16.3098028,13.9436849 C16.328776,13.9695095 16.3461682,13.9934896 16.3619792,14.015625 C16.4210069,14.0967882 16.4505208,14.1816406 16.4505208,14.2701823 C16.4505208,14.3734809 16.4246962,14.4546441 16.3730469,14.5136719 L16.2260887,14.7051629 C16.1404285,14.8098149 16.0364969,14.9278268 15.9142936,15.0591986 L15.6455251,15.3397551 L15.3280325,15.655938 C15.2710568,15.711604 15.2120508,15.7687544 15.1510147,15.8273892 L14.7604359,16.1970114 C14.6912791,16.2615839 14.6200921,16.3276409 14.546875,16.3951823 C14.4583333,16.468967 14.3661024,16.5058594 14.2701823,16.5058594 C14.1871745,16.5058594 14.1166178,16.4871826 14.0585124,16.4498291 L14.0045573,16.40625 L12.4329427,15.2220052 C12.2060547,15.3382161 11.9625651,15.4440511 11.702474,15.5395101 L11.436849,15.6315104 L11.1269531,17.6679688 C11.1195747,17.7638889 11.0771484,17.8432075 10.9996745,17.9059245 C10.941569,17.9529622 10.8762004,17.9823608 10.8035685,17.9941203 L10.7285156,18 L8.27148438,18 C8.05750868,18 7.92469618,17.8967014 7.87304688,17.6901042 C7.85560685,17.6230271 7.83780095,17.5454617 7.81962918,17.4574079 L7.76401623,17.1617812 L7.70620803,16.803224 L7.64620459,16.3817364 L7.55208333,15.6315104 C7.29199219,15.5485026 7.03812663,15.4488932 6.79048665,15.3326823 L6.54492188,15.2109375 L5.01757812,16.3951823 C4.92165799,16.468967 4.82573785,16.5058594 4.72981771,16.5058594 C4.59700521,16.5058594 4.33947519,16.3292791 3.95722764,15.9761186 L3.68391927,15.7145182 L3.35270785,15.3822137 L3.07232591,15.0887145 L2.84277344,14.8340205 C2.74070457,14.7163749 2.65769676,14.6132812 2.59375,14.5247396 C2.52734375,14.4288194 2.49414062,14.343967 2.49414062,14.2701823 C2.49414062,14.1816406 2.53103299,14.093099 2.60481771,14.0045573 L3.00415869,13.5139642 L3.35471142,13.0667384 C3.40907118,12.9958147 3.4613981,12.926698 3.51169218,12.8593883 L3.7890625,12.4772135 C3.65071615,12.2226562 3.53519694,11.968099 3.44250488,11.7135417 L3.35742188,11.4589844 L1.29882812,11.1490885 C1.21766493,11.1343316 1.14756944,11.0863715 1.08854167,11.0052083 C1.04918981,10.9510995 1.02295525,10.8953511 1.00983796,10.837963 L1,10.750651 L1,8.29361979 C1,8.19769965 1.02951389,8.1110026 1.08854167,8.03352865 C1.1328125,7.97542318 1.18745931,7.93495687 1.2524821,7.91212972 L1.32096354,7.89518229 L3.34635417,7.59635417 C3.44965278,7.23480903 3.60091146,6.86957465 3.80013021,6.50065104 L3.64518229,6.29097946 L3.3297526,5.8819354 L2.90364583,5.33854167 L2.69019717,5.0563151 C2.67122396,5.03049045 2.65383185,5.00651042 2.63802083,4.984375 C2.57899306,4.90321181 2.54947917,4.81835938 2.54947917,4.72981771 C2.54947917,4.63389757 2.57530382,4.54904514 2.62695312,4.47526042 C2.67122396,4.41396234 2.72309156,4.34742511 2.78255594,4.27564873 L2.98373937,4.04460213 L3.23050342,3.78212062 C3.27542915,3.73575413 3.32225407,3.68807785 3.37097818,3.63909178 L3.68611317,3.3294579 C3.74243405,3.27523268 3.80065412,3.21969767 3.86077339,3.16285287 L4.453125,2.61588542 C4.53428819,2.53472222 4.6265191,2.49414062 4.72981771,2.49414062 C4.81282552,2.49414062 4.88545736,2.51281738 4.94771322,2.5501709 L6.56705729,3.77799479 C6.79394531,3.66178385 7.0374349,3.55594889 7.29752604,3.46048991 L7.56315104,3.36848958 L7.87304688,1.33203125 C7.88042535,1.23611111 7.92285156,1.15679253 8.00032552,1.09407552 C8.05843099,1.04703776 8.12379964,1.01763916 8.19643148,1.00587972 L8.27148438,1 L10.7285156,1 Z M10.248,2 L8.782,2 L8.45910146,4.12789549 L7.87355282,4.31909504 C7.63890563,4.39571453 7.42080142,4.48041795 7.21913045,4.57293145 L7.02293316,4.66803816 L6.46336558,4.95464594 L4.778,3.673 L4.56441635,3.87383492 L4.24752253,4.17800501 L3.97647999,4.44873808 L3.703,4.738 L4.34826194,5.56343779 L4.53465062,5.81082181 L4.97765085,6.42466062 L4.68003561,6.97579996 C4.55573707,7.20598242 4.4551505,7.43137395 4.37767381,7.65201552 L4.30787811,7.87107529 L4.13062307,8.49146794 L2,8.805 L2,10.243 L4.13034526,10.5640711 L4.31409576,11.1678228 C4.37649689,11.372855 4.45819575,11.580038 4.55964185,11.7894889 L4.66768701,11.9997002 L4.96365713,12.5442852 L4.60761919,13.0516393 C4.47386049,13.2422454 4.32207779,13.4483425 4.15196588,13.6703903 L3.78721269,14.1358897 L3.678,14.269 L3.94378056,14.5550052 L4.2262232,14.8435659 L4.56689758,15.1772078 L4.745,15.34 L6.43938292,14.0273884 L7.00817608,14.3247121 C7.19062624,14.4200837 7.37697966,14.5042962 7.56740662,14.5774358 L7.85612351,14.6788512 L8.4699497,14.8747532 L8.60567418,16.0075843 L8.66363483,16.4386592 L8.71885401,16.8070031 L8.751,17 L10.217,17 L10.5408985,14.8721045 L11.1264472,14.680905 C11.3610944,14.6042855 11.5791986,14.519582 11.7808695,14.4270686 L11.9770668,14.3319618 L12.5345256,14.0464342 L14.229,15.323 L14.6013184,14.9671736 L14.9175175,14.6537336 C14.9655372,14.6050656 15.011216,14.5581936 15.0545525,14.5131325 L15.293,14.256 L14.6517381,13.4365622 L14.4653494,13.1891782 L14.0286697,12.5841179 L14.312653,12.0379962 C14.4366953,11.7994533 14.5400148,11.5669816 14.6229765,11.3406799 L14.6991659,11.1164385 L14.8853565,10.5206284 L17,10.197 L17,8.757 L14.8987306,8.43982207 L14.6992657,7.87292184 C14.6001597,7.59125197 14.5011791,7.35021287 14.4038727,7.15095892 L14.331231,7.0093712 L14.0376314,6.46621203 L14.4884055,5.82435059 L14.7117432,5.52211915 L14.975526,5.17895695 L15.326,4.736 L15.1726671,4.5684241 L14.9148443,4.29926808 L14.5161515,3.90192367 L14.347441,3.74267901 L14.249,3.654 L12.5634427,4.97408866 L11.9918239,4.67528794 C11.8093738,4.57991627 11.6230203,4.4957038 11.4325934,4.42256423 L11.1438765,4.32114879 L10.5300503,4.12524682 L10.3943258,2.99241569 L10.3363652,2.56134079 L10.281146,2.19299693 L10.248,2 Z" id="path3029-path" fill="#000000" fill-rule="nonzero" opacity="0.600000024" transform="translate(9.500000, 9.500000) scale(-1, 1) rotate(-180.000000) translate(-9.500000, -9.500000) "></path>
    </g>
</svg>