<?xml version="1.0" encoding="UTF-8"?>
<svg width="19px" height="19px" viewBox="0 0 19 19" version="1.1" xmlns="http://www.w3.org/2000/svg" xmlns:xlink="http://www.w3.org/1999/xlink">
    <title>target</title>
    <defs>
        <polygon id="path-1" points="0 0 17 0 17 15 0 15.5 0 10 12 10 12 5 0 5"></polygon>
    </defs>
    <g id="target" stroke="none" stroke-width="1" fill="none" fill-rule="evenodd">
        <g id="Group" transform="translate(9.250000, 10.500000) rotate(-270.000000) translate(-9.250000, -10.500000) translate(0.750000, 2.750000)">
            <g id="Oval">
                <mask id="mask-2" fill="white">
                    <use xlink:href="#path-1"></use>
                </mask>
                <g id="Mask"></g>
                <path d="M8.5,1 C12.0898509,1 15,3.91014913 15,7.5 C15,11.0898509 12.0898509,14 8.5,14 C4.91014913,14 2,11.0898509 2,7.5 C2,3.91014913 4.91014913,1 8.5,1 Z M8.5,2 C5.46243388,2 3,4.46243388 3,7.5 C3,10.5375661 5.46243388,13 8.5,13 C11.5375661,13 14,10.5375661 14,7.5 C14,4.46243388 11.5375661,2 8.5,2 Z" fill-opacity="0.4" fill="#000000" fill-rule="nonzero" mask="url(#mask-2)"></path>
            </g>
            <path d="M8,3.25 L12.2426407,7.49264069 L8,11.7352814 L7.29289322,11.0281746 L10.321,7.999 L2.57571742e-14,8 L2.57571742e-14,7 L10.335,6.999 L7.29289322,3.95710678 L8,3.25 Z" id="Combined-Shape" fill-opacity="0.4" fill="#000000" fill-rule="nonzero"></path>
        </g>
    </g>
</svg>