<?xml version="1.0" encoding="UTF-8"?>
<svg width="19px" height="19px" viewBox="0 0 19 19" version="1.1" xmlns="http://www.w3.org/2000/svg" xmlns:xlink="http://www.w3.org/1999/xlink">
    <!-- Generator: Sketch 58 (84663) - https://sketch.com -->
    <title>delete</title>
    <desc>Created with Sketch.</desc>
    <g id="delete" stroke="none" stroke-width="1" fill="none" fill-rule="evenodd" fill-opacity="0.4">
        <path d="M12.5,6.5 C12.7454599,6.5 12.9496084,6.67687516 12.9919443,6.91012437 L13,7 L13,14.5 C13,14.7454599 12.8231248,14.9496084 12.5898756,14.9919443 L12.5,15 L6.5,15 C6.25454011,15 6.05039163,14.8231248 6.00805567,14.5898756 L6,14.5 L6,7 C6,6.72385763 6.22385763,6.5 6.5,6.5 C6.74545989,6.5 6.94960837,6.67687516 6.99194433,6.91012437 L7,7 L7,14 L12,14 L12,7 C12,6.72385763 12.2238576,6.5 12.5,6.5 Z M7.5,6 L5,6 C4.72385763,6 4.5,5.77614237 4.5,5.5 C4.5,5.25454011 4.67687516,5.05039163 4.91012437,5.00805567 L5,5 L7,5 L7,3.5 C7,3.25454011 7.17687516,3.05039163 7.41012437,3.00805567 L7.5,3 L11.5,3 C11.7761424,3 12,3.22385763 12,3.5 L12,3.5 L12,5 L14,5 C14.2761424,5 14.5,5.22385763 14.5,5.5 C14.5,5.74545989 14.3231248,5.94960837 14.0898756,5.99194433 L14,6 L11.5,6 L11.5,6 L7.5,6 L7.5,6 Z M11,4 L8,4 L8,5 L11,5 L11,4 Z" id="Combined-Shape" fill="#000000" fill-rule="nonzero"></path>
        <path d="M8,7.5 L8,12.5 C8,12.7761424 8.22385763,13 8.5,13 C8.77614237,13 9,12.7761424 9,12.5 L9,7.5 C9,7.22385763 8.77614237,7 8.5,7 C8.22385763,7 8,7.22385763 8,7.5 Z" id="Line-3-Copy" fill="#000000" fill-rule="nonzero" opacity="0.600000024"></path>
        <path d="M10,7.5 L10,12.5 C10,12.7761424 10.2238576,13 10.5,13 C10.7761424,13 11,12.7761424 11,12.5 L11,7.5 C11,7.22385763 10.7761424,7 10.5,7 C10.2238576,7 10,7.22385763 10,7.5 Z" id="Line-3-Copy-2" fill="#000000" fill-rule="nonzero" opacity="0.600000024"></path>
    </g>
</svg>