<?xml version="1.0" encoding="UTF-8"?>
<svg width="19px" height="19px" viewBox="0 0 19 19" version="1.1" xmlns="http://www.w3.org/2000/svg" xmlns:xlink="http://www.w3.org/1999/xlink">
    <title>warning</title>
    <g id="warning" stroke="none" stroke-width="1" fill="none" fill-rule="evenodd" fill-opacity="0.4">
        <polygon id="Path" fill="#000000" fill-rule="nonzero" transform="translate(9.500000, 8.000000) rotate(-180.000000) translate(-9.500000, -8.000000) " points="10 6 10 10 9 10 9 6"></polygon>
        <polygon id="Path" fill="#000000" fill-rule="nonzero" transform="translate(9.500000, 12.000000) rotate(-180.000000) translate(-9.500000, -12.000000) " points="10 11 10 13 9 13 9 11"></polygon>
        <path d="M10.5210775,2.19772084 C10.8087169,2.36850673 11.0489236,2.60871342 11.2197095,2.89635282 L17.2062352,12.9789225 C17.7701608,13.9286918 17.4573726,15.155784 16.5076033,15.7197095 C16.1986063,15.9031764 15.8458852,16 15.4865257,16 L3.51347426,16 C2.40890476,16 1.51347426,15.1045695 1.51347426,14 C1.51347426,13.6406406 1.61029785,13.2879194 1.79376477,12.9789225 L7.78029051,2.89635282 C8.34421605,1.9465835 9.57130818,1.63379531 10.5210775,2.19772084 Z M10.0105388,3.05757559 C9.56957443,2.79575302 9.00905001,2.91190141 8.70546973,3.31004912 L8.64014526,3.40689158 L2.65361951,13.4894612 C2.56188605,13.6439597 2.51347426,13.8203203 2.51347426,14 C2.51347426,14.5128358 2.89951445,14.9355072 3.39685313,14.9932723 L3.51347426,15 L15.4865257,15 C15.6662055,15 15.842566,14.9515882 15.9970645,14.8598547 C16.4380288,14.5980322 16.6043763,14.0503036 16.4001352,13.5931732 L16.3463805,13.4894612 L10.3598547,3.40689158 C10.29581,3.2990268 10.2122407,3.20450248 10.1137849,3.12795671 L10.0105388,3.05757559 Z" id="Rectangle" fill="#000000" fill-rule="nonzero" opacity="0.600000024"></path>
    </g>
</svg>