<?xml version="1.0" encoding="UTF-8"?>
<svg width="19px" height="19px" viewBox="0 0 19 19" version="1.1" xmlns="http://www.w3.org/2000/svg" xmlns:xlink="http://www.w3.org/1999/xlink">
    <!-- Generator: Sketch 57.1 (83088) - https://sketch.com -->
    <title>choice</title>
    <desc>Created with Sketch.</desc>
    <g id="choice" stroke="none" stroke-width="1" fill="none" fill-rule="evenodd" fill-opacity="0.4">
        <path d="M8,6 L13,6 C14.1045695,6 15,6.8954305 15,8 L15,13 C15,14.1045695 14.1045695,15 13,15 L8,15 C6.8954305,15 6,14.1045695 6,13 L6,8 C6,6.8954305 6.8954305,6 8,6 Z M8,7 C7.44771525,7 7,7.44771525 7,8 L7,13 C7,13.5522847 7.44771525,14 8,14 L13,14 C13.5522847,14 14,13.5522847 14,13 L14,8 C14,7.44771525 13.5522847,7 13,7 L8,7 Z" id="Rectangle" fill="#000000" fill-rule="nonzero"></path>
        <path d="M5,13 L5,6.5 C5,5.67157288 5.67157288,5 6.5,5 L13,5 L13,4 L6.5,4 C5.11928813,4 4,5.11928813 4,6.5 L4,13 L5,13 Z" id="Path" fill="#000000" fill-rule="nonzero" opacity="0.600000024"></path>
    </g>
</svg>